<?xml version="1.0" standalone="no"?>
<!DOCTYPE svg PUBLIC "-//W3C//DTD SVG 20010904//EN"
 "http://www.w3.org/TR/2001/REC-SVG-20010904/DTD/svg10.dtd">
<svg version="1.0" xmlns="http://www.w3.org/2000/svg"
 width="225.000000pt" height="225.000000pt" viewBox="0 0 225.000000 225.000000"
 preserveAspectRatio="xMidYMid meet">
<metadata>
Created by potrace 1.14, written by Peter Selinger 2001-2017
</metadata>
<g transform="translate(0.000000,225.000000) scale(0.100000,-0.100000)"
fill="#000000" stroke="none">
<path d="M722 2001 c-72 -25 -156 -84 -196 -140 -30 -42 -68 -105 -139 -231
-14 -25 -62 -108 -106 -185 -94 -163 -111 -210 -111 -317 0 -96 20 -157 88
-270 27 -46 60 -101 72 -123 12 -22 39 -69 60 -105 20 -36 58 -101 84 -146 63
-111 190 -226 232 -210 8 3 13 2 10 -3 -16 -25 89 -32 434 -29 l355 3 66 31
c116 55 154 106 399 538 99 175 113 212 113 316 0 111 -13 142 -187 445 -168
291 -190 323 -267 374 -103 69 -119 71 -508 71 -309 -1 -352 -3 -399 -19z
m262 -401 l26 -10 0 -375 c0 -350 -1 -378 -19 -413 -58 -113 -230 -188 -336
-148 -89 35 -118 110 -76 201 41 89 158 158 268 159 l63 1 0 234 c0 260 7 239
-68 209 -31 -12 -35 -11 -53 11 -33 40 -25 58 44 92 34 18 76 36 92 40 17 4
31 7 32 8 1 1 13 -3 27 -9z m507 -19 c25 -30 24 -66 -1 -91 -18 -18 -33 -20
-173 -20 -175 0 -197 7 -197 64 0 32 18 57 50 69 8 4 80 5 158 4 138 -2 145
-3 163 -26z m-77 -192 c47 -22 52 -95 7 -118 -11 -6 -73 -11 -138 -11 -138 0
-163 10 -163 65 0 24 7 39 26 54 23 18 41 21 135 21 59 0 119 -5 133 -11z
m161 -224 c14 -13 25 -34 25 -45 0 -11 -11 -32 -25 -45 -24 -25 -25 -25 -217
-25 -159 0 -198 3 -216 16 -30 21 -30 76 0 104 20 19 34 20 215 20 193 0 194
0 218 -25z m94 -199 c27 -24 27 -70 1 -96 -19 -19 -33 -20 -263 -20 -274 0
-287 3 -287 65 0 25 7 39 27 55 26 20 35 21 264 18 217 -3 239 -5 258 -22z
m-159 -206 c29 -29 26 -74 -6 -99 -24 -19 -40 -21 -176 -21 -183 0 -208 9
-208 77 0 56 22 63 207 63 150 0 165 -2 183 -20z m160 0 c20 -20 26 -65 12
-86 -25 -39 -90 -36 -111 5 -16 29 -14 45 10 75 25 31 61 34 89 6z"/>
</g>
</svg>
